<svg width="515" height="730" viewBox="0 0 515 730" fill="none" xmlns="http://www.w3.org/2000/svg">
<path opacity="0.2" fill-rule="evenodd" clip-rule="evenodd" d="M510.924 -22.958C533.238 -22.1742 552.168 -7.32517 569.48 9.93886C589.553 29.9556 613.865 50.0594 615.848 81.6734C617.905 114.477 598.764 142.775 579.226 165.348C560.353 187.154 536.835 204.468 510.924 202.901C485.958 201.392 466.538 179.354 449.047 157.477C431.804 135.911 414.027 111.862 414 81.6734C413.973 51.4632 430.409 25.6764 448.911 5.70347C466.143 -12.8985 487.966 -23.7645 510.924 -22.958Z" fill="#CCCCCC"/>
<path opacity="0.2" fill-rule="evenodd" clip-rule="evenodd" d="M14.0745 553.099C36.2074 551.457 53.0464 570.626 69.0707 586.033C85.6067 601.932 103.681 618.328 105.723 641.216C107.908 665.701 96.964 689.626 79.8858 707.252C62.5665 725.126 38.845 737.74 14.0745 735.804C-9.38518 733.97 -27.5958 716.201 -42.2248 697.707C-54.9931 681.566 -62.4993 661.749 -60.7481 641.216C-59.1298 622.242 -45.6568 608.127 -33.3484 593.632C-19.3485 577.145 -7.45356 554.696 14.0745 553.099Z" fill="#CCCCCC"/>
</svg>
