<?xml version="1.0" standalone="no"?><!DOCTYPE svg PUBLIC "-//W3C//DTD SVG 1.1//EN" "http://www.w3.org/Graphics/SVG/1.1/DTD/svg11.dtd"><svg t="1593919798565" class="icon" viewBox="0 0 1024 1024" version="1.1" xmlns="http://www.w3.org/2000/svg" p-id="1656" xmlns:xlink="http://www.w3.org/1999/xlink" width="200" height="200"><defs><style type="text/css"></style></defs><path d="M417.056 354.528c-7.2-6.784-15.584-12.16-25.088-16.128-9.632-3.872-19.872-5.888-30.752-5.888-10.912 0-21.152 2.016-30.752 5.888-9.504 3.968-17.888 9.344-25.088 16.128-7.168 6.816-12.8 14.848-16.928 24.096-4.096 9.216-6.112 18.944-6.112 29.152 0 10.24 2.048 20 6.112 29.216 4.128 9.216 9.76 17.248 16.928 24.032 7.2 6.816 15.584 12.256 25.088 16.128 9.568 3.968 19.84 5.92 30.752 5.92 10.88 0 21.12-1.952 30.752-5.92 9.504-3.872 17.888-9.28 25.088-16.128 7.168-6.784 12.8-14.848 16.832-24.032 4.096-9.216 6.208-18.944 6.208-29.216 0-10.208-2.112-19.968-6.208-29.152C429.856 369.376 424.224 361.376 417.056 354.528zM386.368 431.872c-6.88 6.848-15.264 10.24-25.12 10.24s-18.24-3.424-25.12-10.24c-6.784-6.816-10.24-14.848-10.24-24.096 0-9.504 3.456-17.664 10.24-24.288 6.88-6.656 15.264-9.952 25.12-9.952s18.24 3.296 25.12 9.952c6.752 6.624 10.208 14.784 10.208 24.288C396.576 417.056 393.088 425.056 386.368 431.872zM741.632 401.664l0-63.008L498.496 338.656l0 352.8 70.112 0 0-143.872 147.968 0 0-62.944-147.968 0 0-82.944L741.632 401.664z" p-id="1657"></path></svg>