<?xml version="1.0" standalone="no"?><!DOCTYPE svg PUBLIC "-//W3C//DTD SVG 1.1//EN" "http://www.w3.org/Graphics/SVG/1.1/DTD/svg11.dtd"><svg t="1631952813835" class="icon" viewBox="0 0 1077 1024" version="1.1" xmlns="http://www.w3.org/2000/svg" p-id="3304" xmlns:xlink="http://www.w3.org/1999/xlink" width="210.3515625" height="200"><defs><style type="text/css"></style></defs><path d="M437.086316 85.423158L321.589895 287.744l-224.471579 49.690947c-16.384 3.610947-31.528421 11.317895-44.193684 22.312421l-6.413474 6.25179-5.928421 7.006316a99.920842 99.920842 0 0 0 2.96421 127.622737l154.138948 176.128-23.228632 234.873263c-1.724632 17.354105 1.131789 34.923789 8.29979 50.822737l3.772631 7.491368 4.688842 7.383579a99.920842 99.920842 0 0 0 123.526737 35.193263l209.057684-94.208 209.111579 94.154105c15.898947 7.168 33.414737 10.078316 50.768842 8.353685l8.29979-1.239579 8.461474-2.048a99.920842 99.920842 0 0 0 72.757894-105.903158l-23.390315-234.873263 154.246736-176.128c11.048421-12.611368 18.701474-27.809684 22.312421-44.193685l1.455158-8.245894 0.646737-8.677053c1.778526-48.882526-30.666105-91.621053-77.985684-102.076632L725.962105 287.797895l-115.388631-202.320842a99.813053 99.813053 0 0 0-173.433263 0z" p-id="3305"></path></svg>